<svg xmlns="http://www.w3.org/2000/svg" xmlns:xlink="http://www.w3.org/1999/xlink" version="1.1" x="0px" y="0px" viewBox="0 0 512 640" style="enable-background:new 0 0 512 512;" xml:space="preserve"><g><g><rect x="93.333" y="72.24" width="34.97" height="32"/><rect x="153.333" y="72.24" width="34.97" height="32"/><path d="M437,22H75c-19.851,0-36,16.149-36,36v342.387c0,19.851,16.149,36,36,36h88.104V454c0,19.851,16.149,36,36,36h113.791    c19.851,0,36-16.149,36-36v-17.613H437c19.851,0,36-16.149,36-36V58C473,38.149,456.851,22,437,22z M75,54h362    c2.206,0,4,1.794,4,4v65.621H71V58C71,55.794,72.794,54,75,54z M297.599,331.461h-83.197v-21.122    c0-20.922,18.661-37.944,41.599-37.944s41.599,17.022,41.599,37.944V331.461z M316.896,454c0,2.206-1.794,4-4,4H199.104    c-2.206,0-4-1.794-4-4v-86.539c0-2.206,1.794-4,4-4h113.791c2.206,0,4,1.794,4,4V454z M437,404.387h-88.104v-36.925    c0-13.824-7.837-25.846-19.297-31.876v-25.246c0-38.567-33.017-69.944-73.599-69.944s-73.599,31.377-73.599,69.944v25.246    c-11.46,6.03-19.297,18.051-19.297,31.876v36.925H75c-2.206,0-4-1.794-4-4V155.621h370v244.766    C441,402.592,439.206,404.387,437,404.387z"/><path d="M256,381.657c-9.941,0-18,8.008-18,17.887c0,5.941,2.926,11.189,7.412,14.442v26.433h21.177v-26.433    c4.485-3.253,7.412-8.502,7.412-14.442C274,389.665,265.941,381.657,256,381.657z"/></g></g><text x="0" y="527" fill="#000000" font-size="5px" font-weight="bold" font-family="'Helvetica Neue', Helvetica, Arial-Unicode, Arial, Sans-serif">Created by SBTS</text><text x="0" y="532" fill="#000000" font-size="5px" font-weight="bold" font-family="'Helvetica Neue', Helvetica, Arial-Unicode, Arial, Sans-serif">from the Noun Project</text></svg>